<svg id="Layer_3" enable-background="new 0 0 64 64" height="512" viewBox="0 0 64 64" width="512" xmlns="http://www.w3.org/2000/svg"><path d="m44 38h-24c-4.418 0-8 3.582-8 8v16h40v-16c0-4.418-3.582-8-8-8z" fill="#4d5d7a"/><ellipse cx="32" cy="49" fill="#f5b953" rx="2" ry="3"/><path d="m27 62-.066-.221c-1.918-6.393-5.576-12.128-10.565-16.562l-1.369-1.217v-2.394c0-2.253 1.126-4.356 3-5.606l5.188 5.93c1.168 1.334 1.812 3.048 1.812 4.821 0 2.627 1.408 5.053 3.689 6.357l3.311 1.892 3.311-1.892c2.281-1.304 3.689-3.73 3.689-6.357 0-1.773.644-3.487 1.812-4.821l5.188-5.93c1.874 1.249 3 3.353 3 5.606v2.394l-1.369 1.217c-4.989 4.435-8.647 10.169-10.565 16.562l-.066.221" fill="#4472b2"/><path d="m39 2h-14c-3.314 0-6 2.686-6 6v4h26v-4c0-3.314-2.686-6-6-6z" fill="#976947"/><path d="m45 16v11c0 7.18-5.82 13-13 13-7.18 0-13-5.82-13-13v-11" fill="#efbe9a"/><path d="m19 19c-2.209 0-4 1.791-4 4 0 2.209 1.791 4 4 4" fill="#db9b7c"/><path d="m45 19c2.209 0 4 1.791 4 4 0 2.209-1.791 4-4 4" fill="#db9b7c"/><path d="m32 40c7.18 0 13-5.82 13-13h-1.362c-1.6 0-3.046.954-3.677 2.424l-1.961 4.576-.504-.336c-1.627-1.085-3.54-1.664-5.496-1.664s-3.869.579-5.496 1.664l-.504.336-1.961-4.576c-.63-1.47-2.076-2.424-3.677-2.424h-1.362c0 7.18 5.82 13 13 13z" fill="#8892a0"/><path d="m17 12h30v4h-30z" fill="#f5b953"/><path d="m45 12 1-10-9 6-5-6-5 6-9-6 1 10" fill="#f9d18b"/><path d="m32 41c-7.72 0-14-6.28-14-14v-11h2v11c0 6.617 5.383 12 12 12s12-5.383 12-12v-11h2v11c0 7.72-6.28 14-14 14z"/><path d="m21.667 4.273-1.334-1.49c1.285-1.15 2.942-1.783 4.667-1.783h14c1.726 0 3.383.633 4.667 1.783l-1.334 1.49c-.916-.821-2.101-1.273-3.333-1.273h-14c-1.232 0-2.416.452-3.333 1.273z"/><path d="m19 28c-2.757 0-5-2.243-5-5s2.243-5 5-5v2c-1.654 0-3 1.346-3 3s1.346 3 3 3z"/><path d="m45 28v-2c1.654 0 3-1.346 3-3s-1.346-3-3-3v-2c2.757 0 5 2.243 5 5s-2.243 5-5 5z"/><path d="m34 20h7v2h-7z"/><path d="m23 20h7v2h-7z"/><path d="m31 25h2v4h-2z"/><path d="m27.5 26c-.827 0-1.5-.673-1.5-1.5s.673-1.5 1.5-1.5 1.5.673 1.5 1.5-.673 1.5-1.5 1.5z"/><path d="m36.5 26c-.827 0-1.5-.673-1.5-1.5s.673-1.5 1.5-1.5 1.5.673 1.5 1.5-.673 1.5-1.5 1.5z"/><path d="m39 37h5v2h-5z"/><path d="m52 63h-40c-.552 0-1-.448-1-1v-16c0-2.892 1.404-5.626 3.754-7.314l1.167 1.625c-1.829 1.313-2.921 3.44-2.921 5.689v15h38v-15c0-2.249-1.092-4.376-2.922-5.689l1.167-1.625c2.351 1.689 3.755 4.422 3.755 7.314v16c0 .552-.448 1-1 1z"/><path d="m20 37h5v2h-5z"/><path d="m32 45c-3.309 0-6-2.691-6-6h2c0 2.206 1.794 4 4 4s4-1.794 4-4h2c0 3.309-2.691 6-6 6z"/><path d="m38 35c-.195 0-.389-.057-.555-.168l-.504-.336c-2.937-1.957-6.946-1.957-9.883 0l-.504.336c-.247.166-.553.212-.84.126-.285-.084-.517-.292-.634-.564l-1.961-4.576c-.473-1.104-1.555-1.818-2.757-1.818h-1.362v-2h1.362c2.003 0 3.807 1.189 4.596 3.03l1.494 3.486c3.359-1.987 7.736-1.987 11.096 0l1.494-3.486c.789-1.841 2.593-3.03 4.596-3.03h1.362v2h-1.362c-1.202 0-2.284.714-2.758 1.818l-1.961 4.576c-.117.273-.349.48-.634.564-.094.028-.189.042-.285.042z"/><path d="m47 17h-30c-.552 0-1-.448-1-1v-4c0-.552.448-1 1-1h30c.552 0 1 .448 1 1v4c0 .552-.448 1-1 1zm-29-2h28v-2h-28z"/><path d="m18.005 12.1-1-10c-.039-.385.148-.757.48-.957.332-.199.748-.188 1.07.025l8.252 5.501 4.425-5.31 1.536 1.28-5 6c-.327.394-.897.476-1.323.192l-7.24-4.827.79 7.895z"/><path d="m45.995 12.1-1.99-.199.79-7.895-7.24 4.827c-.424.284-.996.202-1.323-.192l-5-6 1.536-1.28 4.425 5.31 8.252-5.501c.321-.214.738-.225 1.07-.025.332.199.519.572.48.957z"/><path d="m31 7h2v2h-2z"/><path d="m30 35h4v2h-4z"/><path d="m37.958 62.288-1.915-.576.066-.221c1.972-6.575 5.727-12.461 10.857-17.022l1.034-.918v-1.945c0-1.629-.686-3.159-1.869-4.237l-4.567 5.22c-1.008 1.152-1.564 2.63-1.564 4.162 0 2.979-1.606 5.748-4.193 7.225l-3.311 1.892c-.308.176-.685.176-.992 0l-3.311-1.892c-2.587-1.477-4.193-4.246-4.193-7.225 0-1.532-.556-3.01-1.564-4.163l-4.567-5.22c-1.183 1.078-1.869 2.609-1.869 4.237v1.945l1.033.918c5.131 4.561 8.886 10.447 10.858 17.023l.066.22-1.915.576-.066-.221c-1.866-6.221-5.418-11.789-10.271-16.103l-1.369-1.217c-.214-.188-.336-.46-.336-.746v-2.395c0-2.593 1.288-4.999 3.445-6.438.417-.278.977-.203 1.307.173l5.188 5.93c1.329 1.518 2.06 3.464 2.06 5.481 0 2.263 1.22 4.366 3.185 5.489l2.815 1.608 2.815-1.608c1.965-1.123 3.185-3.226 3.185-5.489 0-2.017.731-3.963 2.059-5.48l5.188-5.93c.331-.377.891-.452 1.307-.173 2.158 1.438 3.446 3.845 3.446 6.437v2.395c0 .286-.122.558-.336.748l-1.369 1.217c-4.853 4.314-8.405 9.882-10.271 16.102z"/><path d="m32 53c-1.682 0-3-1.757-3-4s1.318-4 3-4 3 1.757 3 4-1.318 4-3 4zm0-6c-.408 0-1 .779-1 2s.592 2 1 2 1-.779 1-2-.592-2-1-2z"/><path d="m31 57h2v2h-2z"/><path d="m18 41h2v2h-2z"/><path d="m44 41h2v2h-2z"/></svg>